<svg width="24" height="24" viewBox="0 0 24 24" fill="none" xmlns="http://www.w3.org/2000/svg">
<path fill-rule="evenodd" clip-rule="evenodd" d="M6.54027 5C6.60027 5.89 6.75027 6.76 6.99027 7.59L5.79027 8.79C5.38027 7.59 5.12027 6.32 5.03027 5H6.54027ZM16.4002 17.0195C17.2502 17.2595 18.1202 17.4095 19.0002 17.4695V18.9595C17.6802 18.8695 16.4102 18.6095 15.2002 18.2095L16.4002 17.0195ZM7.5 3H4C3.45 3 3 3.45 3 4C3 13.39 10.61 21 20 21C20.55 21 21 20.55 21 20V16.51C21 15.96 20.55 15.51 20 15.51C18.76 15.51 17.55 15.31 16.43 14.94C16.33 14.9 16.22 14.89 16.12 14.89C15.86 14.89 15.61 14.99 15.41 15.18L13.21 17.38C10.38 15.93 8.06 13.62 6.62 10.79L8.82 8.59C9.1 8.31 9.18 7.92 9.07 7.57C8.7 6.45 8.5 5.25 8.5 4C8.5 3.45 8.05 3 7.5 3Z" fill="white"/>
</svg>
