<svg width="40" height="40" viewBox="0 0 40 40" fill="none" xmlns="http://www.w3.org/2000/svg">
<path d="M21.713 3.33203C23.588 3.33703 24.5396 3.34703 25.3613 3.37036L25.6846 3.38203C26.058 3.39536 26.4263 3.41203 26.8713 3.43203C28.6446 3.51536 29.8546 3.79536 30.9163 4.20703C32.0163 4.63036 32.943 5.2037 33.8696 6.1287C34.7175 6.96159 35.3733 7.96948 35.7913 9.08203C36.203 10.1437 36.483 11.3537 36.5663 13.1287C36.5863 13.572 36.603 13.9404 36.6163 14.3154L36.6263 14.6387C36.6513 15.4587 36.6613 16.4104 36.6646 18.2854L36.6663 19.5287V21.712C36.6704 22.9277 36.6576 24.1434 36.628 25.3587L36.618 25.682C36.6046 26.057 36.588 26.4254 36.568 26.8687C36.4846 28.6437 36.2013 29.852 35.7913 30.9154C35.3733 32.0279 34.7175 33.0358 33.8696 33.8687C33.0368 34.7165 32.0289 35.3723 30.9163 35.7904C29.8546 36.202 28.6446 36.482 26.8713 36.5654L25.6846 36.6154L25.3613 36.6254C24.5396 36.6487 23.588 36.6604 21.713 36.6637L20.4696 36.6654H18.288C17.0717 36.6697 15.8555 36.6569 14.6396 36.627L14.3163 36.617C13.9207 36.602 13.5251 36.5848 13.1296 36.5654C11.3563 36.482 10.1463 36.202 9.08298 35.7904C7.97103 35.3721 6.96372 34.7163 6.13131 33.8687C5.28289 33.036 4.62649 32.0281 4.20798 30.9154C3.79631 29.8537 3.51631 28.6437 3.43298 26.8687L3.38298 25.682L3.37465 25.3587C3.34392 24.1434 3.33003 22.9277 3.33298 21.712V18.2854C3.32837 17.0697 3.34059 15.854 3.36965 14.6387L3.38131 14.3154C3.39465 13.9404 3.41131 13.572 3.43131 13.1287C3.51465 11.3537 3.79465 10.1454 4.20631 9.08203C4.6258 7.96903 5.28335 6.96109 6.13298 6.1287C6.9649 5.28128 7.97163 4.62549 9.08298 4.20703C10.1463 3.79536 11.3546 3.51536 13.1296 3.43203C13.573 3.41203 13.943 3.39536 14.3163 3.38203L14.6396 3.37203C15.855 3.34242 17.0706 3.32964 18.2863 3.3337L21.713 3.33203ZM19.9996 11.6654C17.7895 11.6654 15.6699 12.5433 14.1071 14.1061C12.5443 15.6689 11.6663 17.7886 11.6663 19.9987C11.6663 22.2088 12.5443 24.3285 14.1071 25.8913C15.6699 27.4541 17.7895 28.332 19.9996 28.332C22.2098 28.332 24.3294 27.4541 25.8922 25.8913C27.455 24.3285 28.333 22.2088 28.333 19.9987C28.333 17.7886 27.455 15.6689 25.8922 14.1061C24.3294 12.5433 22.2098 11.6654 19.9996 11.6654ZM19.9996 14.9987C20.6563 14.9986 21.3065 15.1278 21.9131 15.379C22.5198 15.6302 23.0711 15.9984 23.5354 16.4626C23.9998 16.9268 24.3682 17.4779 24.6196 18.0845C24.8709 18.6911 25.0004 19.3413 25.0005 19.9979C25.0006 20.6545 24.8714 21.3047 24.6202 21.9113C24.369 22.518 24.0008 23.0693 23.5366 23.5336C23.0724 23.998 22.5213 24.3664 21.9147 24.6178C21.3081 24.8692 20.6579 24.9986 20.0013 24.9987C18.6752 24.9987 17.4035 24.4719 16.4658 23.5342C15.5281 22.5965 15.0013 21.3248 15.0013 19.9987C15.0013 18.6726 15.5281 17.4008 16.4658 16.4632C17.4035 15.5255 18.6752 14.9987 20.0013 14.9987M28.7513 9.16536C28.1988 9.16536 27.6689 9.38486 27.2782 9.77556C26.8875 10.1663 26.668 10.6962 26.668 11.2487C26.668 11.8012 26.8875 12.3311 27.2782 12.7218C27.6689 13.1125 28.1988 13.332 28.7513 13.332C29.3038 13.332 29.8338 13.1125 30.2245 12.7218C30.6152 12.3311 30.8346 11.8012 30.8346 11.2487C30.8346 10.6962 30.6152 10.1663 30.2245 9.77556C29.8338 9.38486 29.3038 9.16536 28.7513 9.16536Z" fill="white"/>
</svg>
