<svg width="20" height="20" viewBox="0 0 20 20" fill="none" xmlns="http://www.w3.org/2000/svg">
<path d="M10.0013 1.66602C8.90695 1.66602 7.82332 1.88156 6.81227 2.30035C5.80123 2.71914 4.88257 3.33297 4.10875 4.10679C2.54594 5.6696 1.66797 7.78921 1.66797 9.99935C1.66797 12.2095 2.54594 14.3291 4.10875 15.8919C4.88257 16.6657 5.80123 17.2796 6.81227 17.6983C7.82332 18.1171 8.90695 18.3327 10.0013 18.3327C12.2114 18.3327 14.3311 17.4547 15.8939 15.8919C17.4567 14.3291 18.3346 12.2095 18.3346 9.99935C18.3346 8.905 18.1191 7.82137 17.7003 6.81032C17.2815 5.79927 16.6677 4.88061 15.8939 4.10679C15.12 3.33297 14.2014 2.71914 13.1903 2.30035C12.1793 1.88156 11.0957 1.66602 10.0013 1.66602ZM13.5013 13.4993L9.16797 10.8327V5.83268H10.418V10.166L14.168 12.416L13.5013 13.4993Z" fill="white"/>
</svg>
