<svg width="20" height="20" viewBox="0 0 20 20" fill="none" xmlns="http://www.w3.org/2000/svg">
<path d="M3.33464 16.6673C2.8763 16.6673 2.48408 16.5043 2.15797 16.1782C1.83186 15.852 1.66852 15.4595 1.66797 15.0007V5.00065C1.66797 4.54232 1.8313 4.1501 2.15797 3.82398C2.48464 3.49787 2.87686 3.33454 3.33464 3.33398H16.668C17.1263 3.33398 17.5188 3.49732 17.8455 3.82398C18.1721 4.15065 18.3352 4.54287 18.3346 5.00065V15.0007C18.3346 15.459 18.1716 15.8515 17.8455 16.1782C17.5194 16.5048 17.1269 16.6679 16.668 16.6673H3.33464ZM10.0013 10.834L16.668 6.66732V5.00065L10.0013 9.16732L3.33464 5.00065V6.66732L10.0013 10.834Z" fill="white"/>
</svg>
