<svg width="28" height="29" viewBox="0 0 28 29" fill="none" xmlns="http://www.w3.org/2000/svg">
<circle cx="14" cy="14.168" r="14" fill="#153D34"/>
<path d="M18.6375 19.418C17.4222 19.418 16.2215 19.1531 15.0354 18.6235C13.8493 18.0938 12.7701 17.3427 11.7979 16.3701C10.8257 15.3974 10.0747 14.3183 9.54508 13.1326C9.01542 11.9468 8.75039 10.7461 8.75 9.53047C8.75 9.35547 8.80833 9.20964 8.925 9.09297C9.04167 8.9763 9.1875 8.91797 9.3625 8.91797H11.725C11.8611 8.91797 11.9826 8.96425 12.0896 9.0568C12.1965 9.14936 12.2597 9.25864 12.2792 9.38464L12.6583 11.4263C12.6778 11.5819 12.6729 11.7131 12.6437 11.8201C12.6146 11.927 12.5611 12.0194 12.4833 12.0971L11.0687 13.5263C11.2632 13.886 11.494 14.2335 11.7612 14.5687C12.0283 14.9039 12.3225 15.2273 12.6437 15.5388C12.9451 15.8402 13.2611 16.1198 13.5917 16.3776C13.9222 16.6355 14.2722 16.8711 14.6417 17.0846L16.0125 15.7138C16.1 15.6263 16.2143 15.5608 16.3555 15.5172C16.4967 15.4737 16.6351 15.4614 16.7708 15.4805L18.7833 15.8888C18.9194 15.9277 19.0312 15.9983 19.1187 16.1006C19.2062 16.2028 19.25 16.317 19.25 16.443V18.8055C19.25 18.9805 19.1917 19.1263 19.075 19.243C18.9583 19.3596 18.8125 19.418 18.6375 19.418Z" fill="white"/>
</svg>
