<svg width="25" height="25" viewBox="0 0 25 25" fill="none" xmlns="http://www.w3.org/2000/svg">
<g clip-path="url(#clip0_2181_1355)">
<path fill-rule="evenodd" clip-rule="evenodd" d="M0.5 12.168C0.5 8.98537 1.76428 5.93312 4.01472 3.68269C6.26516 1.43225 9.3174 0.167969 12.5 0.167969C15.6826 0.167969 18.7348 1.43225 20.9853 3.68269C23.2357 5.93312 24.5 8.98537 24.5 12.168C24.5 15.3506 23.2357 18.4028 20.9853 20.6533C18.7348 22.9037 15.6826 24.168 12.5 24.168C9.3174 24.168 6.26516 22.9037 4.01472 20.6533C1.76428 18.4028 0.5 15.3506 0.5 12.168ZM11.8152 17.304L18.724 8.66717L17.476 7.66877L11.5848 15.0304L7.412 11.5536L6.388 12.7824L11.8152 17.304Z" fill="#085C64"/>
</g>
<defs>
<clipPath id="clip0_2181_1355">
<rect width="24" height="24" fill="white" transform="translate(0.5 0.167969)"/>
</clipPath>
</defs>
</svg>
