<svg width="40" height="40" viewBox="0 0 40 40" fill="none" xmlns="http://www.w3.org/2000/svg">
<mask id="mask0_2181_1530" style="mask-type:luminance" maskUnits="userSpaceOnUse" x="2" y="6" width="36" height="28">
<path d="M9.21906 8.67703C13.838 8.44703 17.4307 8.33203 19.9974 8.33203C22.5641 8.33203 26.1582 8.44731 30.7799 8.67786C31.9893 8.73822 33.1357 9.23542 34.0062 10.0771C34.8767 10.9188 35.4122 12.0479 35.5132 13.2545C35.7249 15.7823 35.8307 18.0093 35.8307 19.9354C35.8307 21.8843 35.7224 24.142 35.5057 26.7087C35.4051 27.9015 34.8799 29.0187 34.0256 29.8571C33.1712 30.6956 32.0444 31.1997 30.8499 31.2779C26.8993 31.5362 23.2818 31.6654 19.9974 31.6654C16.7141 31.6654 13.098 31.5362 9.14906 31.2779C7.95495 31.1998 6.82845 30.696 5.97414 29.8581C5.11984 29.0201 4.59439 27.9036 4.49323 26.7112C4.27378 24.1251 4.16406 21.8665 4.16406 19.9354C4.16406 18.027 4.27101 15.7993 4.4849 13.252C4.5863 12.0457 5.12195 10.917 5.99243 10.0757C6.86292 9.23431 8.0091 8.73734 9.21823 8.67703H9.21906Z" fill="white" stroke="white" stroke-width="4" stroke-linejoin="round"/>
<path d="M17.5 16.3397V23.6697C17.4999 23.7988 17.5349 23.9255 17.6011 24.0363C17.6673 24.1471 17.7623 24.2379 17.876 24.2991C17.9897 24.3602 18.1178 24.3894 18.2468 24.3835C18.3757 24.3776 18.5007 24.3368 18.6083 24.2656L24.1058 20.6322C24.2041 20.5675 24.2848 20.4794 24.3408 20.3759C24.3968 20.2724 24.4264 20.1567 24.4269 20.039C24.4274 19.9213 24.3988 19.8053 24.3437 19.7014C24.2885 19.5974 24.2085 19.5087 24.1108 19.4431L18.6125 15.7464C18.505 15.6742 18.38 15.6326 18.2507 15.6259C18.1214 15.6193 17.9927 15.648 17.8785 15.7088C17.7642 15.7697 17.6686 15.8605 17.6019 15.9714C17.5353 16.0824 17.5 16.2094 17.5 16.3389V16.3397Z" fill="black" stroke="black" stroke-width="3.429" stroke-linejoin="round"/>
</mask>
<g mask="url(#mask0_2181_1530)">
<path d="M0 0H40V40H0V0Z" fill="white"/>
</g>
</svg>
